<?xml version="1.0" encoding="UTF-8" ?>
<!DOCTYPE svg PUBLIC "-//W3C//DTD SVG 1.1//EN" "http://www.w3.org/Graphics/SVG/1.1/DTD/svg11.dtd">
<svg width="300pt" height="245pt" viewBox="0 0 300 245" version="1.1" xmlns="http://www.w3.org/2000/svg">
<path fill="#3f3f3f" d=" M 0.00 0.00 L 300.00 0.00 L 300.00 245.00 L 0.00 245.00 L 0.00 0.00 Z" />
<path fill="#ffffff" d=" M 1.04 1.04 C 100.35 1.08 199.66 1.07 298.97 1.04 C 298.91 82.02 298.93 162.99 298.96 243.97 C 221.68 243.82 144.39 244.10 67.11 243.83 L 67.09 243.70 C 67.57 241.02 67.55 238.29 67.12 235.62 L 67.13 235.52 C 67.49 233.89 67.51 232.22 67.10 230.60 L 67.09 230.52 C 67.78 226.17 67.25 221.74 67.41 217.36 L 66.55 217.78 C 68.06 216.36 67.36 214.28 67.10 212.54 L 67.10 212.52 C 67.57 208.25 67.68 203.84 67.07 199.58 L 67.08 199.50 C 67.69 195.23 67.52 190.85 67.13 186.57 L 67.13 186.56 C 67.54 184.94 67.44 183.29 67.06 181.68 L 67.02 181.37 C 67.74 177.19 67.57 172.79 67.07 168.58 L 67.06 168.56 C 67.58 166.93 67.52 165.23 67.09 163.60 L 67.06 163.46 C 67.68 159.22 67.60 154.81 67.09 150.56 L 67.08 150.51 C 67.64 146.26 67.63 141.86 67.10 137.61 L 67.10 137.59 C 67.52 135.95 67.53 134.24 67.12 132.60 L 67.10 132.52 C 67.62 128.25 67.63 123.86 67.09 119.59 L 67.07 119.52 C 67.56 117.89 67.52 116.19 67.10 114.56 L 67.09 114.53 C 67.64 111.91 67.40 109.23 67.26 106.58 L 67.26 106.52 C 67.28 105.78 67.33 104.29 67.35 103.55 C 69.07 105.25 70.85 106.88 72.71 108.42 C 94.76 126.95 118.45 143.83 144.51 156.26 C 163.11 164.99 183.21 171.68 203.95 171.73 C 216.26 172.15 228.71 167.96 238.05 159.87 C 249.90 149.67 257.11 135.16 261.58 120.41 C 264.20 112.15 265.90 103.64 266.93 95.05 C 267.26 93.14 267.44 91.18 266.79 89.33 C 256.88 91.10 246.74 89.80 236.73 90.22 C 235.76 87.79 234.04 84.80 231.03 84.86 C 224.03 84.71 217.02 84.74 210.01 84.84 C 207.14 84.76 205.38 87.39 204.49 89.78 C 195.29 89.74 186.08 89.76 176.88 89.79 C 175.51 89.90 174.60 88.63 173.50 88.06 C 173.50 78.03 173.61 67.99 173.43 57.96 C 174.28 57.87 175.98 57.68 176.83 57.59 C 176.56 51.33 177.20 45.02 176.45 38.78 C 175.60 34.98 172.02 31.75 167.99 32.17 C 164.37 32.37 161.66 35.48 160.68 38.77 C 159.81 45.07 160.53 51.46 160.26 57.79 C 161.56 57.89 162.85 57.99 164.15 58.09 C 163.98 74.67 164.18 91.25 164.05 107.82 C 150.71 105.74 138.48 98.42 129.95 88.01 C 116.37 71.87 110.32 51.24 99.87 33.23 C 94.76 24.66 87.49 15.99 77.12 14.20 C 66.13 12.28 55.13 16.33 45.64 21.60 C 38.05 25.77 31.90 32.34 28.18 40.16 C 27.79 40.39 27.00 40.85 26.61 41.08 C 25.13 40.04 23.19 40.48 21.57 40.92 L 21.53 40.91 C 19.87 40.68 18.20 40.74 16.55 40.93 L 16.48 40.93 C 13.88 40.64 11.26 40.68 8.65 40.95 L 8.45 40.90 C 6.91 40.41 5.07 40.12 3.63 41.04 L 3.47 40.91 C 2.86 40.80 1.63 40.58 1.01 40.47 C 1.11 27.33 1.06 14.18 1.04 1.04 Z" />
<path fill="#ff0000" d=" M 45.64 21.60 C 55.13 16.33 66.13 12.28 77.12 14.20 C 87.49 15.99 94.76 24.66 99.87 33.23 C 110.32 51.24 116.37 71.87 129.95 88.01 C 138.48 98.42 150.71 105.74 164.05 107.82 C 164.53 107.96 165.49 108.24 165.97 108.38 C 165.97 108.85 165.95 109.78 165.94 110.24 C 162.52 110.72 159.22 109.41 155.96 108.57 C 145.46 105.61 136.22 99.16 129.05 91.02 C 114.83 75.03 108.55 54.11 98.27 35.71 C 93.60 27.74 87.39 19.55 78.03 17.03 C 68.00 14.60 57.82 18.38 48.93 22.83 C 41.50 26.56 35.34 32.51 31.19 39.70 C 32.13 40.19 33.06 40.70 33.99 41.23 C 32.84 41.47 31.71 40.90 30.59 40.75 C 30.46 41.20 30.21 42.09 30.08 42.54 C 26.08 53.56 27.20 65.83 31.10 76.71 C 32.72 82.65 35.33 88.25 38.17 93.68 C 38.51 94.03 39.18 94.73 39.52 95.08 C 39.51 95.95 39.50 97.68 39.49 98.54 C 38.82 98.12 37.49 97.27 36.82 96.84 C 36.35 95.87 35.87 94.91 35.38 93.95 C 34.36 91.87 33.27 89.82 32.26 87.73 C 32.01 87.16 31.50 86.02 31.25 85.46 C 25.55 71.25 22.26 54.85 28.18 40.16 C 31.90 32.34 38.05 25.77 45.64 21.60 Z" />
<path fill="#ffffff" d=" M 48.93 22.83 C 57.82 18.38 68.00 14.60 78.03 17.03 C 87.39 19.55 93.60 27.74 98.27 35.71 C 108.55 54.11 114.83 75.03 129.05 91.02 C 136.22 99.16 145.46 105.61 155.96 108.57 C 159.22 109.41 162.52 110.72 165.94 110.24 C 165.95 109.78 165.97 108.85 165.97 108.38 C 166.01 91.47 166.05 74.55 165.95 57.63 C 168.03 57.73 170.12 57.79 172.20 57.85 C 172.12 67.26 172.23 76.67 172.16 86.08 C 172.37 87.79 170.82 88.88 169.93 90.09 C 170.22 91.82 171.40 92.91 172.97 93.56 C 174.22 92.75 175.23 91.12 176.90 91.22 C 186.09 91.11 195.28 91.22 204.47 91.19 C 205.27 93.62 207.14 96.35 210.00 96.29 C 216.99 96.42 224.00 96.44 230.99 96.28 C 233.99 96.30 235.89 93.42 236.66 90.85 C 246.01 90.56 255.37 91.16 264.70 90.48 C 263.23 107.60 258.90 124.71 250.63 139.85 C 244.36 151.36 234.73 161.54 222.25 166.18 C 211.61 170.26 199.95 169.61 188.89 167.99 C 173.94 165.55 159.55 160.42 145.88 153.98 C 118.08 140.67 92.96 122.40 69.70 102.32 C 65.10 99.19 68.62 93.06 67.10 88.58 L 67.09 88.57 C 67.53 86.94 67.52 85.25 67.12 83.63 L 67.10 83.55 C 67.61 79.28 67.63 74.88 67.08 70.61 L 67.06 70.49 C 67.59 68.88 67.55 67.18 67.04 65.57 L 67.05 65.53 C 67.52 61.35 67.85 56.93 66.98 52.81 L 66.95 52.73 C 68.44 48.84 67.13 44.44 67.68 40.35 C 60.12 40.96 52.53 40.45 44.96 40.61 C 41.31 40.81 37.54 40.08 33.99 41.23 C 33.06 40.70 32.13 40.19 31.19 39.70 C 35.34 32.51 41.50 26.56 48.93 22.83 Z" />
<path fill="#851515" d=" M 160.68 38.77 C 161.66 35.48 164.37 32.37 167.99 32.17 C 172.02 31.75 175.60 34.98 176.45 38.78 C 176.33 44.97 176.47 51.16 176.30 57.34 C 172.84 57.34 169.40 57.47 165.95 57.63 C 164.20 57.60 162.45 57.42 160.71 57.27 C 160.71 51.10 160.70 44.94 160.68 38.77 Z" />
<path fill="#ff0000" d=" M 161.99 40.96 C 162.00 37.33 164.95 33.35 168.90 33.77 C 172.54 33.81 175.16 37.55 175.11 40.95 C 175.15 45.98 175.13 51.02 175.08 56.06 C 170.73 56.15 166.37 56.12 162.02 56.09 C 161.79 51.05 161.87 46.00 161.99 40.96 Z" />
<path fill="#9b8e8e" d=" M 160.26 57.79 C 160.53 51.46 159.81 45.07 160.68 38.77 C 160.70 44.94 160.71 51.10 160.71 57.27 C 162.45 57.42 164.20 57.60 165.95 57.63 C 166.05 74.55 166.01 91.47 165.97 108.38 C 165.49 108.24 164.53 107.96 164.05 107.82 C 164.18 91.25 163.98 74.67 164.15 58.09 C 162.85 57.99 161.56 57.89 160.26 57.79 Z" />
<path fill="#605f5f" d=" M 176.45 38.78 C 177.20 45.02 176.56 51.33 176.83 57.59 C 175.98 57.68 174.28 57.87 173.43 57.96 C 173.61 67.99 173.50 78.03 173.50 88.06 C 174.60 88.63 175.51 89.90 176.88 89.79 C 186.08 89.76 195.29 89.74 204.49 89.78 L 204.47 91.19 C 195.28 91.22 186.09 91.11 176.90 91.22 C 175.23 91.12 174.22 92.75 172.97 93.56 C 171.40 92.91 170.22 91.82 169.93 90.09 C 170.82 88.88 172.37 87.79 172.16 86.08 C 172.23 76.67 172.12 67.26 172.20 57.85 C 170.12 57.79 168.03 57.73 165.95 57.63 C 169.40 57.47 172.84 57.34 176.30 57.34 C 176.47 51.16 176.33 44.97 176.45 38.78 Z" />
<path fill="#000000" d=" M 3.63 41.04 C 5.07 40.12 6.91 40.41 8.45 40.90 C 7.98 42.53 6.08 42.80 4.72 42.20 C 4.45 41.91 3.90 41.33 3.63 41.04 Z" />
<path fill="#000000" d=" M 8.65 40.95 C 11.26 40.68 13.88 40.64 16.48 40.93 C 13.97 41.81 11.19 41.61 8.65 40.95 Z" />
<path fill="#000000" d=" M 16.55 40.93 C 18.20 40.74 19.87 40.68 21.53 40.91 C 19.95 41.87 18.18 41.44 16.55 40.93 Z" />
<path fill="#000000" d=" M 21.57 40.92 C 23.19 40.48 25.13 40.04 26.61 41.08 C 25.37 42.98 22.67 42.97 21.57 40.92 Z" />
<path fill="#66cc66" d=" M 26.61 41.08 C 27.00 40.85 27.79 40.39 28.18 40.16 C 22.26 54.85 25.55 71.25 31.25 85.46 C 30.99 88.63 30.83 91.82 30.89 95.01 C 31.04 134.91 30.66 174.82 31.09 214.72 C 39.66 214.69 48.23 214.73 56.80 214.72 C 57.15 174.65 56.59 134.57 57.07 94.51 C 59.94 97.19 62.93 99.74 65.75 102.46 C 66.89 103.48 66.82 105.16 67.26 106.52 L 67.26 106.58 C 66.27 109.12 66.49 111.92 67.09 114.53 L 67.10 114.56 C 66.54 116.18 66.58 117.88 67.07 119.52 L 67.09 119.59 C 66.42 123.84 66.42 128.27 67.10 132.52 L 67.12 132.60 C 66.50 134.23 66.58 135.94 67.10 137.59 L 67.10 137.61 C 66.40 141.84 66.44 146.27 67.08 150.51 L 67.09 150.56 C 66.41 154.80 66.45 159.22 67.06 163.46 L 67.09 163.60 C 66.56 165.22 66.56 166.92 67.06 168.56 L 67.07 168.58 C 66.40 172.79 66.50 177.15 67.02 181.37 L 67.06 181.68 C 66.66 183.29 66.52 184.97 67.13 186.56 L 67.13 186.57 C 66.33 190.80 66.48 195.25 67.08 199.50 L 67.07 199.58 C 66.41 203.83 66.43 208.28 67.10 212.52 L 67.10 212.54 C 66.71 214.26 66.50 216.01 66.55 217.78 L 67.41 217.36 C 66.02 221.51 66.61 226.21 67.09 230.52 L 67.10 230.60 C 66.52 232.21 66.54 233.91 67.13 235.52 L 67.12 235.62 C 66.44 238.26 66.45 241.04 67.09 243.70 L 67.11 243.83 C 45.09 244.06 23.05 243.88 1.03 243.93 C 1.18 176.71 0.93 109.49 1.15 42.27 C 1.73 41.93 2.89 41.25 3.47 40.91 L 3.63 41.04 C 3.90 41.33 4.45 41.91 4.72 42.20 C 6.08 42.80 7.98 42.53 8.45 40.90 L 8.65 40.95 C 11.19 41.61 13.97 41.81 16.48 40.93 L 16.55 40.93 C 18.18 41.44 19.95 41.87 21.53 40.91 L 21.57 40.92 C 22.67 42.97 25.37 42.98 26.61 41.08 Z" />
<path fill="#3a8938" d=" M 33.99 41.23 C 37.54 40.08 41.31 40.81 44.96 40.61 C 52.53 40.45 60.12 40.96 67.68 40.35 C 67.13 44.44 68.44 48.84 66.95 52.73 C 65.42 49.53 66.80 45.90 66.07 42.52 C 54.08 42.36 42.08 42.29 30.08 42.54 C 30.21 42.09 30.46 41.20 30.59 40.75 C 31.71 40.90 32.84 41.47 33.99 41.23 Z" />
<path fill="#66cc66" d=" M 30.08 42.54 C 42.08 42.29 54.08 42.36 66.07 42.52 C 66.80 45.90 65.42 49.53 66.95 52.73 L 66.98 52.81 C 66.46 57.02 66.50 61.32 67.05 65.53 L 67.04 65.57 C 66.60 67.19 66.58 68.87 67.06 70.49 L 67.08 70.61 C 66.37 74.86 66.48 79.30 67.10 83.55 L 67.12 83.63 C 66.49 85.24 66.64 86.93 67.09 88.57 L 67.10 88.58 C 66.21 92.20 66.89 95.94 66.66 99.62 C 63.25 96.51 59.79 93.46 56.46 90.27 C 56.48 77.65 56.36 65.04 56.53 52.43 C 48.14 52.55 39.75 52.55 31.37 52.43 C 31.33 60.52 31.83 68.64 31.10 76.71 C 27.20 65.83 26.08 53.56 30.08 42.54 Z" />
<path fill="#333333" d=" M 31.37 52.43 C 39.75 52.55 48.14 52.55 56.53 52.43 C 56.36 65.04 56.48 77.65 56.46 90.27 C 54.46 88.43 52.39 86.68 50.63 84.61 L 52.68 86.36 C 52.65 85.20 52.59 82.89 52.56 81.73 C 50.32 81.76 48.08 81.78 45.83 81.82 C 45.83 83.98 45.75 86.16 45.97 88.32 C 46.09 88.61 46.32 89.19 46.43 89.49 C 47.57 89.66 48.71 89.82 49.86 89.97 C 49.87 89.23 49.89 87.75 49.91 87.01 C 51.79 89.28 53.78 91.45 55.95 93.45 C 55.48 99.63 55.78 105.83 55.71 112.02 C 55.72 144.69 55.66 177.36 55.73 210.04 C 55.60 211.21 56.18 213.79 54.11 213.38 C 46.81 213.32 39.49 213.67 32.21 213.14 C 32.34 171.34 32.26 129.53 32.26 87.73 C 33.27 89.82 34.36 91.87 35.38 93.95 C 35.46 96.11 35.42 98.27 35.43 100.43 C 37.58 100.42 39.74 100.40 41.89 100.39 C 41.90 98.14 41.89 95.89 41.83 93.64 C 40.61 93.66 39.39 93.67 38.17 93.68 C 35.33 88.25 32.72 82.65 31.10 76.71 C 31.83 68.64 31.33 60.52 31.37 52.43 Z" />
<path fill="#000000" d=" M 67.05 65.53 C 66.50 61.32 66.46 57.02 66.98 52.81 C 67.85 56.93 67.52 61.35 67.05 65.53 Z" />
<path fill="#ffdb33" d=" M 36.66 59.41 C 37.98 59.36 39.30 59.32 40.63 59.28 C 40.59 60.64 40.54 62.00 40.50 63.36 C 39.27 63.30 38.04 63.25 36.81 63.20 C 36.76 61.94 36.71 60.67 36.66 59.41 Z" />
<path fill="#ffe733" d=" M 47.24 59.32 C 48.65 59.34 50.06 59.36 51.48 59.38 C 51.42 60.68 51.36 61.97 51.30 63.27 C 50.01 63.28 48.72 63.28 47.43 63.29 C 47.36 61.97 47.30 60.64 47.24 59.32 Z" />
<path fill="#000000" d=" M 67.06 70.49 C 66.58 68.87 66.60 67.19 67.04 65.57 C 67.55 67.18 67.59 68.88 67.06 70.49 Z" />
<path fill="#ffdb33" d=" M 36.61 71.36 C 37.95 71.32 39.29 71.29 40.64 71.26 C 40.59 72.62 40.54 73.99 40.49 75.35 C 39.26 75.31 38.03 75.27 36.80 75.23 C 36.73 73.94 36.67 72.65 36.61 71.36 Z" />
<path fill="#ffdb33" d=" M 47.22 71.22 C 48.64 71.25 50.05 71.28 51.47 71.31 C 51.43 72.63 51.39 73.95 51.34 75.27 C 50.02 75.30 48.70 75.33 47.38 75.36 C 47.32 73.98 47.27 72.60 47.22 71.22 Z" />
<path fill="#000000" d=" M 67.10 83.55 C 66.48 79.30 66.37 74.86 67.08 70.61 C 67.63 74.88 67.61 79.28 67.10 83.55 Z" />
<path fill="#f5f7f3" d=" M 45.83 81.82 C 48.08 81.78 50.32 81.76 52.56 81.73 C 52.59 82.89 52.65 85.20 52.68 86.36 L 50.63 84.61 L 50.54 83.91 C 50.14 80.59 44.57 84.27 47.73 85.96 C 47.96 86.18 48.41 86.62 48.64 86.83 C 48.60 87.33 48.52 88.33 48.48 88.83 L 45.97 88.32 C 45.75 86.16 45.83 83.98 45.83 81.82 Z" />
<path fill="#ffdb33" d=" M 36.64 83.36 C 37.95 83.31 39.26 83.27 40.57 83.23 C 40.59 84.43 40.60 85.63 40.62 86.83 C 39.30 86.81 37.98 86.78 36.66 86.74 C 36.66 85.61 36.65 84.48 36.64 83.36 Z" />
<path fill="#fff899" d=" M 47.73 85.96 C 44.57 84.27 50.14 80.59 50.54 83.91 C 50.12 83.96 49.26 84.06 48.84 84.10 C 48.56 84.57 48.01 85.50 47.73 85.96 Z" />
<path fill="#70540e" d=" M 47.73 85.96 C 48.01 85.50 48.56 84.57 48.84 84.10 C 49.26 84.06 50.12 83.96 50.54 83.91 L 50.63 84.61 C 50.02 85.40 49.35 86.14 48.64 86.83 C 48.41 86.62 47.96 86.18 47.73 85.96 Z" />
<path fill="#000000" d=" M 67.09 88.57 C 66.64 86.93 66.49 85.24 67.12 83.63 C 67.52 85.25 67.53 86.94 67.09 88.57 Z" />
<path fill="#000000" d=" M 48.64 86.83 C 49.35 86.14 50.02 85.40 50.63 84.61 C 52.39 86.68 54.46 88.43 56.46 90.27 C 59.79 93.46 63.25 96.51 66.66 99.62 C 66.89 95.94 66.21 92.20 67.10 88.58 C 68.62 93.06 65.10 99.19 69.70 102.32 C 92.96 122.40 118.08 140.67 145.88 153.98 C 159.55 160.42 173.94 165.55 188.89 167.99 C 199.95 169.61 211.61 170.26 222.25 166.18 C 234.73 161.54 244.36 151.36 250.63 139.85 C 258.90 124.71 263.23 107.60 264.70 90.48 C 255.37 91.16 246.01 90.56 236.66 90.85 L 236.73 90.22 C 246.74 89.80 256.88 91.10 266.79 89.33 C 267.44 91.18 267.26 93.14 266.93 95.05 C 265.90 103.64 264.20 112.15 261.58 120.41 C 257.11 135.16 249.90 149.67 238.05 159.87 C 228.71 167.96 216.26 172.15 203.95 171.73 C 183.21 171.68 163.11 164.99 144.51 156.26 C 118.45 143.83 94.76 126.95 72.71 108.42 C 70.85 106.88 69.07 105.25 67.35 103.55 C 67.33 104.29 67.28 105.78 67.26 106.52 C 66.82 105.16 66.89 103.48 65.75 102.46 C 62.93 99.74 59.94 97.19 57.07 94.51 C 56.79 94.24 56.23 93.71 55.95 93.45 C 53.78 91.45 51.79 89.28 49.91 87.01 C 49.89 87.75 49.87 89.23 49.86 89.97 C 48.71 89.82 47.57 89.66 46.43 89.49 C 46.32 89.19 46.09 88.61 45.97 88.32 L 48.48 88.83 C 48.52 88.33 48.60 87.33 48.64 86.83 Z" />
<path fill="#a47821" d=" M 204.49 89.78 C 205.38 87.39 207.14 84.76 210.01 84.84 C 217.02 84.74 224.03 84.71 231.03 84.86 C 234.04 84.80 235.76 87.79 236.73 90.22 L 236.66 90.85 C 235.89 93.42 233.99 96.30 230.99 96.28 C 224.00 96.44 216.99 96.42 210.00 96.29 C 207.14 96.35 205.27 93.62 204.47 91.19 L 204.49 89.78 Z" />
<path fill="#646e64" d=" M 31.25 85.46 C 31.50 86.02 32.01 87.16 32.26 87.73 C 32.26 129.53 32.34 171.34 32.21 213.14 C 39.49 213.67 46.81 213.32 54.11 213.38 C 56.18 213.79 55.60 211.21 55.73 210.04 C 55.66 177.36 55.72 144.69 55.71 112.02 C 55.78 105.83 55.48 99.63 55.95 93.45 C 56.23 93.71 56.79 94.24 57.07 94.51 C 56.59 134.57 57.15 174.65 56.80 214.72 C 48.23 214.73 39.66 214.69 31.09 214.72 C 30.66 174.82 31.04 134.91 30.89 95.01 C 30.83 91.82 30.99 88.63 31.25 85.46 Z" />
<path fill="#ffffcb" d=" M 206.44 91.88 C 205.16 88.76 208.55 85.90 211.54 86.14 C 211.56 89.15 211.51 92.17 211.58 95.19 C 209.58 94.71 207.07 94.19 206.44 91.88 Z" />
<path fill="#000000" d=" M 211.54 86.14 C 212.06 86.21 213.12 86.35 213.65 86.41 C 213.67 89.26 213.72 92.11 213.57 94.95 C 213.07 95.01 212.08 95.13 211.58 95.19 C 211.51 92.17 211.56 89.15 211.54 86.14 Z" />
<path fill="#ffffcb" d=" M 213.65 86.41 C 214.17 86.37 215.22 86.28 215.75 86.23 C 215.79 89.08 215.80 91.92 215.82 94.76 C 215.26 94.81 214.14 94.90 213.57 94.95 C 213.72 92.11 213.67 89.26 213.65 86.41 Z" />
<path fill="#ffffd8" d=" M 218.45 86.43 C 218.87 86.35 219.70 86.19 220.12 86.11 C 220.08 89.16 220.08 92.22 220.14 95.27 C 219.71 95.09 218.84 94.74 218.41 94.56 C 218.26 91.85 218.29 89.13 218.45 86.43 Z" />
<path fill="#000000" d=" M 220.12 86.11 C 220.74 86.14 222.00 86.18 222.63 86.20 C 222.65 89.15 222.65 92.10 222.60 95.05 C 221.99 95.11 220.76 95.21 220.14 95.27 C 220.08 92.22 220.08 89.16 220.12 86.11 Z" />
<path fill="#ffffcb" d=" M 222.63 86.20 C 224.57 86.27 226.52 86.30 228.46 86.26 C 228.44 89.11 228.39 91.97 228.51 94.83 C 226.54 94.81 224.56 94.88 222.60 95.05 C 222.65 92.10 222.65 89.15 222.63 86.20 Z" />
<path fill="#9d110d" d=" M 228.46 86.26 C 229.14 86.25 230.49 86.23 231.16 86.22 C 231.25 88.94 231.25 91.68 230.94 94.39 C 230.66 94.65 230.10 95.16 229.82 95.41 L 228.51 94.83 C 228.39 91.97 228.44 89.11 228.46 86.26 Z" />
<path fill="#ffffd8" d=" M 231.16 86.22 C 235.71 86.93 235.98 94.65 230.94 94.39 C 231.25 91.68 231.25 88.94 231.16 86.22 Z" />
<path fill="#ffffff" d=" M 38.17 93.68 C 39.39 93.67 40.61 93.66 41.83 93.64 C 41.89 95.89 41.90 98.14 41.89 100.39 C 39.74 100.40 37.58 100.42 35.43 100.43 C 35.42 98.27 35.46 96.11 35.38 93.95 C 35.87 94.91 36.35 95.87 36.82 96.84 C 36.98 97.38 37.30 98.47 37.45 99.01 C 38.51 98.92 39.57 98.83 40.63 98.72 C 40.51 97.75 40.37 96.78 40.22 95.82 C 40.04 95.63 39.70 95.27 39.52 95.08 C 39.18 94.73 38.51 94.03 38.17 93.68 Z" />
<path fill="#ffdb33" d=" M 39.52 95.08 C 39.70 95.27 40.04 95.63 40.22 95.82 C 40.37 96.78 40.51 97.75 40.63 98.72 C 39.57 98.83 38.51 98.92 37.45 99.01 C 37.30 98.47 36.98 97.38 36.82 96.84 C 37.49 97.27 38.82 98.12 39.49 98.54 C 39.50 97.68 39.51 95.95 39.52 95.08 Z" />
<path fill="#ffdb33" d=" M 47.25 95.13 C 48.65 95.17 50.04 95.23 51.43 95.31 C 51.45 96.45 51.49 97.59 51.52 98.73 C 50.13 99.15 48.67 99.25 47.24 98.92 C 47.25 97.65 47.25 96.39 47.25 95.13 Z" />
<path fill="#ffdb33" d=" M 36.65 107.31 C 37.97 107.25 39.29 107.21 40.62 107.17 C 40.60 108.40 40.59 109.64 40.57 110.87 C 39.27 110.82 37.96 110.77 36.65 110.71 C 36.65 109.58 36.65 108.44 36.65 107.31 Z" />
<path fill="#ffdb33" d=" M 47.26 107.12 C 48.65 107.16 50.04 107.21 51.42 107.26 C 51.43 108.42 51.44 109.58 51.45 110.74 C 50.05 110.79 48.65 110.83 47.26 110.86 C 47.26 109.62 47.26 108.37 47.26 107.12 Z" />
<path fill="#000000" d=" M 67.09 114.53 C 66.49 111.92 66.27 109.12 67.26 106.58 C 67.40 109.23 67.64 111.91 67.09 114.53 Z" />
<path fill="#000000" d=" M 67.07 119.52 C 66.58 117.88 66.54 116.18 67.10 114.56 C 67.52 116.19 67.56 117.89 67.07 119.52 Z" />
<path fill="#ffd333" d=" M 36.81 118.77 C 38.01 118.76 39.21 118.74 40.41 118.73 C 40.51 120.09 40.60 121.46 40.68 122.83 C 39.32 122.81 37.97 122.79 36.61 122.77 C 36.68 121.43 36.75 120.10 36.81 118.77 Z" />
<path fill="#ffdb33" d=" M 47.40 118.72 C 48.72 118.74 50.03 118.76 51.34 118.77 C 51.38 120.10 51.42 121.43 51.46 122.77 C 50.05 122.80 48.63 122.83 47.22 122.86 C 47.28 121.48 47.34 120.10 47.40 118.72 Z" />
<path fill="#000000" d=" M 67.10 132.52 C 66.42 128.27 66.42 123.84 67.09 119.59 C 67.63 123.86 67.62 128.25 67.10 132.52 Z" />
<path fill="#ffd333" d=" M 36.82 130.85 C 38.04 130.80 39.27 130.75 40.49 130.70 C 40.54 132.04 40.58 133.39 40.62 134.73 C 39.29 134.69 37.97 134.65 36.65 134.61 C 36.70 133.36 36.76 132.10 36.82 130.85 Z" />
<path fill="#ffd333" d=" M 47.39 130.71 C 48.69 130.73 49.98 130.75 51.27 130.77 C 51.36 132.07 51.43 133.37 51.51 134.67 C 50.09 134.69 48.67 134.71 47.25 134.73 C 47.30 133.39 47.34 132.05 47.39 130.71 Z" />
<path fill="#000000" d=" M 67.10 137.59 C 66.58 135.94 66.50 134.23 67.12 132.60 C 67.53 134.24 67.52 135.95 67.10 137.59 Z" />
<path fill="#000000" d=" M 67.08 150.51 C 66.44 146.27 66.40 141.84 67.10 137.61 C 67.63 141.86 67.64 146.26 67.08 150.51 Z" />
<path fill="#ffdb33" d=" M 36.78 142.72 C 38.04 142.71 39.30 142.70 40.57 142.69 C 40.56 144.05 40.55 145.41 40.55 146.78 C 39.24 146.73 37.93 146.67 36.62 146.62 C 36.67 145.32 36.73 144.02 36.78 142.72 Z" />
<path fill="#ffdb33" d=" M 47.28 142.64 C 48.63 142.67 49.97 142.70 51.31 142.73 C 51.37 144.04 51.42 145.35 51.48 146.67 C 50.08 146.71 48.69 146.76 47.30 146.81 C 47.29 145.42 47.29 144.03 47.28 142.64 Z" />
<path fill="#000000" d=" M 67.06 163.46 C 66.45 159.22 66.41 154.80 67.09 150.56 C 67.60 154.81 67.68 159.22 67.06 163.46 Z" />
<path fill="#ffdb33" d=" M 36.78 154.79 C 38.05 154.76 39.31 154.74 40.58 154.71 C 40.57 156.01 40.55 157.31 40.54 158.61 C 39.25 158.57 37.95 158.54 36.66 158.50 C 36.70 157.26 36.74 156.02 36.78 154.79 Z" />
<path fill="#ffdb33" d=" M 47.32 154.69 C 48.66 154.71 49.99 154.74 51.33 154.77 C 51.37 156.03 51.41 157.29 51.45 158.55 C 50.07 158.57 48.68 158.59 47.30 158.62 C 47.30 157.31 47.31 155.99 47.32 154.69 Z" />
<path fill="#000000" d=" M 67.06 168.56 C 66.56 166.92 66.56 165.22 67.09 163.60 C 67.52 165.23 67.58 166.93 67.06 168.56 Z" />
<path fill="#ffdb33" d=" M 36.74 166.66 C 38.01 166.62 39.28 166.57 40.55 166.53 C 40.55 167.90 40.55 169.27 40.55 170.64 C 39.26 170.60 37.97 170.56 36.68 170.52 C 36.70 169.23 36.72 167.95 36.74 166.66 Z" />
<path fill="#ffdb33" d=" M 47.29 166.56 C 48.64 166.58 50.00 166.59 51.35 166.61 C 51.39 167.93 51.42 169.25 51.45 170.57 C 50.07 170.58 48.68 170.59 47.30 170.61 C 47.30 169.26 47.29 167.91 47.29 166.56 Z" />
<path fill="#000000" d=" M 67.02 181.37 C 66.50 177.15 66.40 172.79 67.07 168.58 C 67.57 172.79 67.74 177.19 67.02 181.37 Z" />
<path fill="#ffdb33" d=" M 36.71 178.67 C 37.99 178.63 39.28 178.58 40.57 178.54 C 40.55 179.86 40.54 181.19 40.53 182.52 C 39.27 182.45 38.01 182.39 36.75 182.32 C 36.74 181.10 36.72 179.89 36.71 178.67 Z" />
<path fill="#ffdb33" d=" M 47.33 178.53 C 48.67 178.57 50.01 178.60 51.36 178.64 C 51.37 179.87 51.39 181.10 51.40 182.34 C 50.04 182.39 48.67 182.45 47.30 182.50 C 47.31 181.18 47.32 179.85 47.33 178.53 Z" />
<path fill="#000000" d=" M 67.13 186.56 C 66.52 184.97 66.66 183.29 67.06 181.68 C 67.44 183.29 67.54 184.94 67.13 186.56 Z" />
<path fill="#000000" d=" M 67.08 199.50 C 66.48 195.25 66.33 190.80 67.13 186.57 C 67.52 190.85 67.69 195.23 67.08 199.50 Z" />
<path fill="#ffd333" d=" M 36.69 190.48 C 37.98 190.45 39.27 190.43 40.56 190.41 C 40.56 191.77 40.57 193.13 40.57 194.49 C 39.27 194.47 37.97 194.44 36.67 194.43 C 36.68 193.11 36.69 191.79 36.69 190.48 Z" />
<path fill="#ffdb33" d=" M 47.30 190.40 C 48.67 190.42 50.04 190.44 51.42 190.46 C 51.42 191.76 51.42 193.06 51.42 194.35 C 50.05 194.41 48.69 194.47 47.33 194.52 C 47.31 193.14 47.31 191.77 47.30 190.40 Z" />
<path fill="#000000" d=" M 67.10 212.52 C 66.43 208.28 66.41 203.83 67.07 199.58 C 67.68 203.84 67.57 208.25 67.10 212.52 Z" />
<path fill="#ffdb33" d=" M 36.66 202.56 C 37.95 202.50 39.23 202.44 40.52 202.39 C 40.54 203.70 40.56 205.01 40.58 206.32 C 39.31 206.30 38.04 206.29 36.77 206.28 C 36.73 205.04 36.70 203.79 36.66 202.56 Z" />
<path fill="#ffdb33" d=" M 47.29 202.42 C 48.68 202.43 50.07 202.45 51.45 202.47 C 51.42 203.73 51.38 204.99 51.35 206.26 C 50.00 206.29 48.65 206.33 47.31 206.38 C 47.30 205.05 47.30 203.73 47.29 202.42 Z" />
<path fill="#000000" d=" M 66.55 217.78 C 66.50 216.01 66.71 214.26 67.10 212.54 C 67.36 214.28 68.06 216.36 66.55 217.78 Z" />
<path fill="#000000" d=" M 67.09 230.52 C 66.61 226.21 66.02 221.51 67.41 217.36 C 67.25 221.74 67.78 226.17 67.09 230.52 Z" />
<path fill="#000000" d=" M 67.13 235.52 C 66.54 233.91 66.52 232.21 67.10 230.60 C 67.51 232.22 67.49 233.89 67.13 235.52 Z" />
<path fill="#000000" d=" M 67.09 243.70 C 66.45 241.04 66.44 238.26 67.12 235.62 C 67.55 238.29 67.57 241.02 67.09 243.70 Z" />
</svg>
